<?xml version="1.0"?><svg xmlns="http://www.w3.org/2000/svg"  viewBox="0 0 30 30" width="30px" height="30px">    <path d="M 6 4 C 4.895 4 4 4.895 4 6 L 4 24 C 4 25.105 4.895 26 6 26 L 24 26 C 25.105 26 26 25.105 26 24 L 26 6 C 26 4.895 25.105 4 24 4 L 6 4 z M 18.708984 9.7539062 L 20.404297 9.7539062 L 20.404297 20.123047 L 18.763672 20.123047 L 18.763672 18.941406 L 18.646484 18.941406 C 18.222484 19.761406 17.361266 20.246094 16.322266 20.246094 C 14.428266 20.246094 13.246094 18.757906 13.246094 16.378906 C 13.246094 14.013906 14.435266 12.523438 16.322266 12.523438 C 17.347266 12.523438 18.19675 13.015938 18.59375 13.835938 L 18.708984 13.835938 L 18.708984 9.7539062 z M 9.5957031 10.259766 L 11.359375 10.259766 L 11.359375 20.123047 L 9.5957031 20.123047 L 9.5957031 10.259766 z M 16.849609 13.964844 C 15.694609 13.964844 14.982422 14.880766 14.982422 16.384766 C 14.982422 17.895766 15.687609 18.804688 16.849609 18.804688 C 18.018609 18.804688 18.728516 17.888766 18.728516 16.384766 C 18.728516 14.894766 18.011609 13.964844 16.849609 13.964844 z"/></svg>