<svg xmlns="http://www.w3.org/2000/svg"  viewBox="0 0 26 26" width="26px" height="26px"><path d="M 11.546875 9.46875 C 11.632813 9.699219 11.675781 9.984375 11.675781 10.320313 C 11.675781 10.722656 11.628906 11.054688 11.539063 11.3125 C 11.449219 11.5625 11.328125 11.761719 11.179688 11.902344 C 11.027344 12.042969 10.855469 12.144531 10.660156 12.199219 C 10.460938 12.261719 10.246094 12.292969 10.023438 12.292969 C 9.964844 12.292969 9.847656 12.285156 9.675781 12.269531 C 9.5625 12.257813 9.484375 12.246094 9.429688 12.238281 L 9.429688 8.613281 C 9.617188 8.574219 9.851563 8.558594 10.121094 8.558594 C 10.328125 8.558594 10.53125 8.585938 10.722656 8.648438 C 10.90625 8.707031 11.070313 8.800781 11.210938 8.929688 C 11.351563 9.0625 11.464844 9.242188 11.546875 9.46875 Z M 26 4.875 L 26 21.125 C 26 23.816406 23.816406 26 21.125 26 L 4.875 26 C 2.183594 26 0 23.816406 0 21.125 L 0 4.875 C 0 2.183594 2.183594 0 4.875 0 L 21.125 0 C 23.816406 0 26 2.183594 26 4.875 Z M 13.730469 12.175781 C 13.933594 11.671875 14.035156 11.054688 14.035156 10.335938 C 14.035156 9.542969 13.914063 8.886719 13.671875 8.386719 C 13.429688 7.886719 13.109375 7.488281 12.71875 7.210938 C 12.332031 6.933594 11.886719 6.746094 11.398438 6.652344 C 10.46875 6.476563 9.503906 6.484375 8.539063 6.589844 C 8.082031 6.636719 7.652344 6.703125 7.261719 6.789063 C 7.203125 6.804688 7.164063 6.855469 7.164063 6.910156 L 7.164063 18 C 7.164063 18.070313 7.21875 18.125 7.289063 18.125 L 9.304688 18.125 C 9.371094 18.125 9.429688 18.070313 9.429688 18 L 9.429688 14.289063 C 9.453125 14.292969 9.480469 14.296875 9.507813 14.300781 C 9.609375 14.3125 9.714844 14.320313 9.824219 14.324219 C 9.933594 14.328125 10.039063 14.332031 10.136719 14.332031 L 10.34375 14.332031 C 10.8125 14.332031 11.277344 14.261719 11.71875 14.117188 C 12.167969 13.976563 12.566406 13.738281 12.910156 13.417969 C 13.253906 13.097656 13.527344 12.679688 13.730469 12.175781 Z M 19.234375 15.761719 C 19.234375 15.304688 19.160156 14.914063 19.007813 14.601563 C 18.855469 14.289063 18.660156 14.023438 18.429688 13.804688 C 18.195313 13.589844 17.949219 13.410156 17.691406 13.265625 C 17.441406 13.128906 17.203125 12.996094 16.980469 12.867188 C 16.765625 12.746094 16.585938 12.617188 16.453125 12.492188 C 16.335938 12.382813 16.277344 12.25 16.277344 12.082031 C 16.277344 11.835938 16.351563 11.550781 16.933594 11.550781 C 17.199219 11.550781 17.472656 11.589844 17.75 11.664063 C 18.027344 11.742188 18.269531 11.824219 18.46875 11.90625 C 18.503906 11.921875 18.539063 11.921875 18.570313 11.90625 C 18.605469 11.890625 18.628906 11.863281 18.636719 11.828125 L 19.085938 10.355469 C 19.101563 10.300781 19.082031 10.242188 19.03125 10.214844 C 18.777344 10.058594 18.429688 9.925781 18.003906 9.824219 C 17.582031 9.71875 17.125 9.667969 16.648438 9.667969 C 15.828125 9.667969 15.195313 9.882813 14.765625 10.3125 C 14.339844 10.738281 14.121094 11.351563 14.121094 12.128906 C 14.121094 12.582031 14.199219 12.96875 14.351563 13.273438 C 14.5 13.574219 14.695313 13.832031 14.929688 14.046875 C 15.164063 14.253906 15.410156 14.433594 15.664063 14.574219 C 15.914063 14.710938 16.152344 14.847656 16.375 14.980469 C 16.589844 15.105469 16.765625 15.246094 16.898438 15.386719 C 17.023438 15.519531 17.082031 15.679688 17.082031 15.871094 C 17.082031 16.074219 17.019531 16.21875 16.894531 16.304688 C 16.757813 16.402344 16.574219 16.449219 16.359375 16.449219 C 16.050781 16.449219 15.753906 16.402344 15.476563 16.3125 C 15.195313 16.21875 14.941406 16.109375 14.722656 15.988281 C 14.691406 15.96875 14.652344 15.964844 14.617188 15.976563 C 14.582031 15.992188 14.554688 16.019531 14.542969 16.054688 L 14.015625 17.589844 C 13.996094 17.644531 14.019531 17.703125 14.066406 17.734375 C 14.332031 17.914063 14.6875 18.058594 15.121094 18.167969 C 15.550781 18.277344 15.996094 18.332031 16.4375 18.332031 C 17.355469 18.332031 18.058594 18.09375 18.527344 17.625 C 18.996094 17.152344 19.234375 16.527344 19.234375 15.761719 Z"/></svg>